<?xml version="1.0" standalone="no"?>
<!DOCTYPE svg PUBLIC "-//W3C//DTD SVG 20010904//EN"
 "http://www.w3.org/TR/2001/REC-SVG-20010904/DTD/svg10.dtd">
<svg version="1.0" xmlns="http://www.w3.org/2000/svg"
 width="500.000000pt" height="500.000000pt" viewBox="0 0 500.000000 500.000000"
 preserveAspectRatio="xMidYMid meet">
<metadata>
Created by potrace 1.11, written by Peter Selinger 2001-2013
</metadata>
<g transform="translate(0.000000,500.000000) scale(0.100000,-0.100000)"
fill="#000000" stroke="none">
<path d="M2345 4990 c-55 -4 -126 -11 -158 -15 l-58 -7 -1022 -931 c-562 -511
-1025 -939 -1030 -950 -20 -52 -58 -302 -68 -447 -22 -331 31 -701 146 -1016
51 -139 172 -380 253 -504 194 -297 482 -578 782 -765 227 -140 535 -264 805
-322 130 -28 131 -28 515 -28 384 0 385 0 515 28 382 83 761 263 1060 504 129
104 330 311 426 438 219 292 379 642 456 1000 28 130 28 131 28 515 0 384 0
385 -28 515 -77 358 -237 708 -456 1000 -95 126 -297 334 -422 435 -406 327
-883 512 -1414 550 -152 11 -180 11 -330 0z m-505 -1455 c110 -16 190 -42 265
-85 166 -95 281 -278 316 -500 18 -116 6 -440 -21 -565 -56 -261 -147 -447
-298 -607 -123 -130 -263 -219 -437 -277 -79 -26 -241 -61 -286 -61 -11 0 -20
23 -33 92 -20 104 -21 102 59 112 144 17 319 89 441 182 132 100 254 288 308
472 l15 54 -37 -34 c-133 -121 -287 -178 -476 -178 -164 0 -299 39 -415 121
-115 81 -196 203 -238 359 -24 92 -24 330 1 420 99 361 430 557 836 495z
m2167 -115 l2 -95 -334 -325 -334 -325 127 -11 c70 -7 150 -17 177 -24 189
-47 328 -184 371 -366 25 -106 15 -324 -19 -421 -35 -102 -71 -159 -143 -229
-115 -111 -274 -170 -489 -181 -148 -7 -269 8 -390 48 -70 23 -180 74 -203 94
-3 2 55 162 64 176 3 5 41 -9 84 -31 168 -84 357 -116 519 -86 215 39 335 164
361 378 31 254 -78 406 -324 453 -42 8 -157 18 -256 21 l-180 7 0 82 0 83 334
323 334 324 -464 3 -464 2 0 100 0 100 613 -2 612 -3 2 -95z"/>
<path d="M1558 3334 c-211 -51 -329 -210 -344 -464 -14 -231 80 -419 248 -498
79 -38 148 -52 246 -52 145 0 257 47 352 146 122 127 167 310 125 508 -41 193
-158 319 -336 361 -79 18 -214 18 -291 -1z"/>
</g>
</svg>
